<?xml version="1.0" standalone="no"?>
<!DOCTYPE svg PUBLIC "-//W3C//DTD SVG 20010904//EN"
 "http://www.w3.org/TR/2001/REC-SVG-20010904/DTD/svg10.dtd">
<svg version="1.0" xmlns="http://www.w3.org/2000/svg"
 width="444.000000pt" height="444.000000pt" viewBox="0 0 444.000000 444.000000"
 preserveAspectRatio="xMidYMid meet">
<metadata>
Created by potrace 1.14, written by Peter Selinger 2001-2017
</metadata>
<g transform="translate(0.000000,444.000000) scale(0.100000,-0.100000)"
fill="#000000" stroke="none">
<path d="M1890 4290 c-507 -108 -897 -527 -1069 -1145 -104 -375 -154 -891
-121 -1250 42 -452 188 -797 462 -1089 l56 -61 -33 70 c-79 166 -181 527 -209
735 -21 158 -31 356 -18 363 5 4 12 -11 16 -36 20 -124 111 -521 138 -596 41
-118 161 -349 189 -367 11 -6 -29 108 -40 116 -4 3 -12 23 -18 46 l-10 40 101
-101 c56 -56 135 -127 176 -157 78 -58 208 -128 235 -128 14 0 16 25 14 215 0
118 0 216 2 216 2 1 30 -14 61 -34 110 -71 281 -161 329 -173 35 -9 58 -10 86
-2 69 18 216 95 328 171 l110 74 0 -246 0 -246 27 2 c40 2 136 44 199 86 86
57 144 112 210 198 93 123 149 239 213 444 l16 50 -5 -55 c-7 -79 -107 -471
-144 -559 -17 -41 -29 -76 -27 -78 6 -6 130 146 181 222 105 157 205 369 250
528 26 91 29 60 5 -55 -50 -235 -163 -459 -351 -688 -56 -69 -109 -134 -117
-145 -8 -11 39 34 104 100 134 134 209 239 297 417 154 311 207 611 194 1093
-11 363 -41 636 -98 865 -64 256 -168 463 -332 658 -187 222 -397 369 -606
424 -64 16 -94 18 -191 13 l-116 -6 -80 35 c-44 19 -100 40 -124 45 -68 16
-195 12 -290 -9z m715 -106 c97 -22 284 -113 365 -179 299 -241 529 -684 603
-1163 19 -124 6 -105 -22 32 -81 394 -259 748 -502 994 -180 183 -388 291
-596 309 -47 4 -70 10 -67 17 6 16 129 10 219 -10z m-822 -967 c7 -179 23
-286 62 -422 87 -302 294 -588 525 -725 67 -41 195 -93 212 -88 5 2 -14 19
-42 37 -73 47 -157 128 -230 220 -109 138 -105 148 11 29 107 -108 320 -288
341 -288 6 0 -15 27 -45 60 -84 91 -157 250 -129 283 6 6 25 21 43 31 l32 19
-27 -35 c-22 -30 -24 -37 -11 -42 9 -3 18 0 21 8 4 12 53 36 70 36 2 0 14 -21
25 -46 35 -72 79 -114 123 -114 44 0 82 18 116 55 21 22 25 36 25 86 0 32 2
58 5 57 51 -26 92 -58 96 -76 8 -27 -11 -74 -45 -114 l-25 -30 43 22 c24 12
63 40 87 62 44 40 44 40 44 14 0 -54 -33 -214 -60 -294 -40 -113 -83 -192
-138 -246 l-46 -46 50 16 c27 9 77 37 112 61 34 24 62 41 62 38 0 -12 -143
-242 -192 -307 -102 -138 -314 -303 -552 -429 -138 -73 -154 -73 -322 15 -264
139 -445 278 -541 418 -47 69 -123 198 -123 210 0 3 12 6 26 6 16 -1 21 -4 14
-8 -8 -5 7 -18 42 -38 99 -56 108 -50 31 22 -84 78 -118 141 -151 276 -32 134
-56 321 -41 334 8 8 13 7 17 -4 3 -8 25 -35 50 -60 25 -25 39 -36 31 -26 -13
18 -13 19 9 7 12 -7 20 -16 17 -21 -3 -6 1 -7 9 -4 12 5 10 12 -10 41 -41 61
-25 107 49 138 38 16 47 12 47 -20 0 -14 7 -43 17 -66 13 -34 25 -46 67 -65
61 -28 79 -29 117 -7 42 25 43 43 1 21 -54 -28 -142 -9 -142 31 0 22 31 38 93
46 61 8 87 0 87 -28 1 -21 1 -21 15 3 8 14 14 38 15 53 l0 29 45 -25 c25 -14
45 -22 45 -19 0 16 -61 73 -111 105 -89 56 -113 62 -223 49 -96 -11 -108 -15
-199 -67 -26 -15 -50 -26 -52 -23 -2 2 1 47 8 100 l11 96 96 6 c131 10 284 -9
411 -52 l55 -18 -4 22 c-13 71 -273 105 -490 65 -23 -5 -44 -5 -47 -1 -8 13
70 161 155 295 126 199 248 401 272 450 12 25 25 45 28 45 4 0 10 -73 13 -163z
m-311 -59 c-11 -34 -38 -108 -60 -163 -21 -55 -54 -145 -73 -199 -18 -55 -35
-94 -37 -87 -7 21 19 142 49 226 34 97 128 300 135 292 3 -3 -3 -34 -14 -69z
m847 -148 c58 -101 162 -238 251 -334 33 -35 60 -66 60 -69 0 -4 -24 -13 -52
-22 -64 -18 -118 -50 -118 -68 0 -11 25 -7 111 16 l110 31 47 -47 c45 -46 46
-47 20 -47 -14 0 -55 -9 -90 -20 -49 -15 -77 -32 -123 -74 -32 -30 -62 -53
-66 -51 -12 8 -116 331 -148 460 -17 66 -35 154 -41 195 -6 41 -13 85 -16 98
-2 12 -3 22 0 22 2 0 27 -40 55 -90z m440 -256 c132 -140 143 -153 137 -163
-4 -5 -1 -13 7 -18 7 -4 35 -35 62 -68 27 -33 67 -79 88 -103 21 -24 36 -46
34 -49 -6 -6 -141 80 -151 96 -4 6 -22 11 -41 11 -25 0 -45 11 -84 46 -28 25
-51 50 -51 55 0 5 19 9 43 10 35 1 38 2 17 9 -23 6 -21 8 15 12 30 3 23 5 -27
6 -63 2 -68 4 -92 35 -42 55 -186 313 -186 333 0 10 150 -128 229 -212z m97
-479 c22 -29 17 -44 -20 -61 -47 -23 -98 -12 -130 27 -41 49 -35 54 55 53 68
0 84 -4 95 -19z m531 -332 c-8 -70 -46 -135 -90 -152 -21 -8 -40 -11 -43 -8
-4 3 16 39 43 79 27 40 55 88 62 105 18 44 34 30 28 -24z m-2180 -157 c48 -59
92 -124 93 -138 2 -40 -111 95 -174 207 -61 110 -72 164 -12 65 24 -41 66
-102 93 -134z"/>
<path d="M2135 1506 c-5 -2 -39 -12 -74 -22 l-63 -18 58 -12 c33 -7 82 -13
111 -13 71 -1 209 20 192 29 -32 17 -200 44 -224 36z"/>
</g>
</svg>
